<svg xmlns="http://www.w3.org/2000/svg" width="40" height="40" fill="none"><path fill="#fff" d="M6 6h28v22H6z"/><path fill="#fff" d="M30 26h4v5h-4z"/><path fill="#A3A3A3" d="M20 15a1.667 1.667 0 1 0 0 3.333A1.667 1.667 0 0 0 20 15ZM31.666 3.334H8.333a5 5 0 0 0-5 5V25a5 5 0 0 0 5 5H27.65l6.166 6.184a1.666 1.666 0 0 0 1.184.483 1.4 1.4 0 0 0 .633-.134A1.668 1.668 0 0 0 36.666 35V8.334a5 5 0 0 0-5-5Zm1.667 27.65-3.817-3.834a1.666 1.666 0 0 0-1.183-.483h-20A1.667 1.667 0 0 1 6.666 25V8.334a1.667 1.667 0 0 1 1.667-1.667h23.333a1.667 1.667 0 0 1 1.667 1.667v22.65ZM13.333 15a1.668 1.668 0 1 0-.081 3.335A1.668 1.668 0 0 0 13.333 15Zm13.333 0a1.667 1.667 0 1 0 0 3.333 1.667 1.667 0 0 0 0-3.333Z"/></svg>