<svg xmlns="http://www.w3.org/2000/svg" viewBox="0 0 15 15"><defs><style>.cls-1{fill:#8effff;opacity:0}.cls-2{fill:#fff}.cls-3{fill:none;stroke:#a3a3a3}.cls-4{fill:#a3a3a3}</style></defs><g id="Layer_2" data-name="Layer 2"><g id="TOC"><path class="cls-1" d="M0 0h15v15H0z"/><g id="Group_2343" data-name="Group 2343"><g id="Group_2341" data-name="Group 2341"><g id="Ellipse_443-2" data-name="Ellipse 443-2"><circle class="cls-2" cx="7.5" cy="7.5" r="7"/><circle class="cls-3" cx="7.5" cy="7.5" r="6.56"/></g><path id="Path_2183" data-name="Path 2183" class="cls-4" d="M11.13 6.06l-4.2 4.2a.25.25 0 0 1-.34 0L3.82 8c-.23-.22-.23-.34 0-.56l.76-.76c.3-.31.38-.23.61 0l1.36 1.08a.2.2 0 0 0 .28 0l3-3.07c.23-.22.35-.26.57 0l.76.76c.23.27.27.3-.03.61z"/></g></g></g></g></svg>