<svg xmlns="http://www.w3.org/2000/svg" viewBox="0 0 17 17"><defs><style>.cls-1{fill:#94b778}.cls-2{fill:#fff}.cls-3{fill:#93b874}</style></defs><rect  class="cls-1" width="17" height="17" rx="5"/><rect class="cls-2" x="1.52" y="2.71" width="3.9" height="11.58" rx=".53"/><rect class="cls-1" x="2.33" y="4.01" width="2.27" height=".57" rx=".29"/><rect class="cls-1" x="2.33" y="4.86" width="2.27" height=".57" rx=".29"/><rect class="cls-1" x="2.33" y="5.72" width="2.27" height=".57" rx=".29"/><circle class="cls-1" cx="3.47" cy="11.52" r=".23"/><circle class="cls-1" cx="3.47" cy="12.82" r=".58"/><path class="cls-2" d="M7.66 14.54V13h1v-.51H5.39a1.26 1.26 0 0 1-1.26-1.26v-6A1.27 1.27 0 0 1 5.39 4h9.08a1.26 1.26 0 0 1 1.26 1.26v6.05a1.25 1.25 0 0 1-1.26 1.26h-3.28V13h1v1.51z"/><path class="cls-3" d="M14.47 4.2a1 1 0 0 1 1 1v6.05a1 1 0 0 1-1 1h-3.53v1h1v1h-4v-1h1v-1H5.39a1 1 0 0 1-1-1v-6a1 1 0 0 1 1-1h9.08m0-.5H5.39a1.52 1.52 0 0 0-1.51 1.46v6.05a1.52 1.52 0 0 0 1.51 1.51h2v2h5v-2h2A1.52 1.52 0 0 0 16 11.26v-6a1.52 1.52 0 0 0-1.53-1.56z"/><path class="cls-1" d="M5.39 5.21h9.08v6.05H5.39z"/><circle class="cls-2" cx="12.25" cy="5.92" r=".23"/><circle class="cls-2" cx="12.86" cy="5.92" r=".23"/><circle class="cls-2" cx="13.47" cy="5.92" r=".23"/></svg>
