<svg aria-hidden="true" xmlns="http://www.w3.org/2000/svg" viewBox="0 0 20 20" class="msk-icon"><path d="M8.614 3.502c-.16.045-.328.07-.501.07-.998 0-1.806-.8-1.806-1.786C6.307.799 7.115 0 8.113 0a1.796 1.796 0 011.803 1.873c.321.402.596.88.825 1.43.564 1.353.47 2.796-.251 4.259l-.066.114c-1.414 2.116-1.903 2.98-2.447 3.431a7.454 7.454 0 01-.805.58 1.807 1.807 0 01-1.152.839 10.08 10.08 0 01-.648 1.607c-.457.885-.52 2.105-.285 2.449.634.924 1.164 1.263 2.72 1.263 2.43 0 3.552-.477 3.852-1.683.213-.856.218-1.352.064-1.883-.092-.317-.759-1.903-.746-1.872-.724-1.835-.72-2.793-.127-4.006.216-.441.54-.793.957-1.06v-.055C11.807 5.469 13.289 4 15.113 4c1.823 0 3.305 1.47 3.305 3.286s-1.482 3.285-3.305 3.285a3.307 3.307 0 01-2.526-1.165c-.272.61-.242 1.018.25 2.267-.059-.15.678 1.602.807 2.05.258.891.25 1.74-.044 2.92-.589 2.37-2.549 3.202-5.793 3.202-2.288 0-3.39-.706-4.369-2.131-.71-1.036-.607-3.018.156-4.498.205-.397.389-.861.55-1.392a1.771 1.771 0 01-.258-.513c-.347-.23-.766-.577-1.276-1.05-.684-.632-1.348-1.687-2.06-3.244-.59-1.562-.716-2.94-.332-4.121.139-.425.336-.797.588-1.111A1.796 1.796 0 012.613 0c.997 0 1.805.8 1.805 1.786S3.61 3.57 2.613 3.57c-.17 0-.334-.023-.489-.066 0 .003-.002.006-.003.008-.226.697-.14 1.625.275 2.733C2.98 7.52 3.519 8.376 3.97 8.794c.227.21.429.388.602.531A1.811 1.811 0 015.612 9c.436 0 .835.152 1.147.406.323-.312.791-1.032 1.964-2.785.45-.942.497-1.769.172-2.548a4.71 4.71 0 00-.281-.571zm6.499 5.07c.722 0 1.305-.578 1.305-1.286 0-.708-.583-1.286-1.305-1.286-.723 0-1.306.578-1.306 1.286 0 .708.583 1.285 1.306 1.285z"/></svg>