<svg aria-hidden="true" class="msk-icon" xmlns="http://www.w3.org/2000/svg" viewBox="0 0 169.414 153.5"><style>.find-doctor-background{fill:none}</style><path class="find-doctor-background" d="M96.229 62.625c-8.948 0-16.332 6.799-17.27 15.5h.748c7.25 0 13.147 5.897 13.147 13.146v5.77c1.092.215 2.22.334 3.375.334 9.58 0 17.375-7.794 17.375-17.375 0-9.58-7.794-17.375-17.375-17.375z"/><path class="find-doctor-background" d="M96.229 62.625c-8.948 0-16.332 6.799-17.27 15.5A17.454 17.454 0 0078.854 80c0 .042.005.083.005.125h.848c6.147 0 11.147 5 11.147 11.146v5.231a17.19 17.19 0 002 .538c1.092.216 2.22.335 3.375.335 9.58 0 17.375-7.794 17.375-17.375 0-9.58-7.794-17.375-17.375-17.375z"/><path d="M139.311 111.983c6.925-7.6 11.189-17.665 11.189-28.733 0-23.572-19.178-42.75-42.75-42.75S65 59.678 65 83.25 84.178 126 107.75 126c11.068 0 21.133-4.264 28.733-11.189l30.103 30.103 2.828-2.828-30.103-30.103zM107.75 122C86.383 122 69 104.617 69 83.25S86.383 44.5 107.75 44.5s38.75 17.383 38.75 38.75S129.117 122 107.75 122z"/><path d="M74.707 79.5h-1.496A34.908 34.908 0 0073 83.25c0 .084.01.166.011.25h1.696C87 83.5 97 93.5 97 105.793v10.462c1.306.426 2.632.805 4 1.075v-11.537C101 91.295 89.205 79.5 74.707 79.5zM97 149.5H4v-43.707C4 93.5 14.002 83.5 26.295 83.5h5.234l5.989 14.834c2.181 5.404 7.156 8.762 12.982 8.762s10.8-3.358 12.982-8.762h-.002l.031-.101c-.664-1.956-1.23-3.957-1.632-6.02l-2.108 4.625c-1.86 4.613-6.01 6.258-9.271 6.258s-7.41-1.645-9.271-6.258L35.844 83.5h25.168c0-.084-.012-.166-.012-.25 0-1.264.065-2.511.164-3.75h-34.87C11.795 79.5 0 91.295 0 105.793V153.5h101v-23.994a46.405 46.405 0 01-4-.77V149.5zm-47.75-74c4.607 0 8.982-.988 12.95-2.736.423-1.835.99-3.612 1.622-5.358-4.262 2.58-9.237 4.094-14.572 4.094C33.674 71.5 21 58.827 21 43.25c0-6.957 2.538-13.324 6.726-18.25h43.048c4.188 4.926 6.726 11.293 6.726 18.25 0 1.648-.171 3.254-.443 4.826l-.003.002c1.397-1.22 2.84-2.39 4.376-3.44.02-.464.07-.92.07-1.388 0-7.186-2.391-13.807-6.38-19.174L73.2 11.831A13.93 13.93 0 0059.37 0H39.132A13.933 13.933 0 0025.3 11.831l-1.92 12.242C19.392 29.441 17 36.063 17 43.25 17 61.033 31.467 75.5 49.25 75.5zM29.254 12.45A9.95 9.95 0 0139.133 4h20.236a9.946 9.946 0 019.877 8.451L70.59 21H27.912l1.342-8.55z"/></svg>