<svg aria-hidden="true" class="msk-icon" viewBox="0 0 20 20" xmlns="http://www.w3.org/2000/svg"><path d="M18.608 10c1.34 1.615 1.73 3.158 1.095 4.367-.643 1.23-2.243 1.906-4.505 1.906a12.8 12.8 0 01-.996-.044C13.232 18.54 11.725 20 10 20s-3.233-1.46-4.203-3.77a13.62 13.62 0 01-.996.043c-2.26 0-3.862-.676-4.505-1.906C-.337 13.158.053 11.615 1.391 10 .054 8.385-.337 6.843.296 5.633.94 4.403 2.54 3.727 4.801 3.727c.333.002.665.016.996.044C6.767 1.46 8.274 0 9.999 0s3.233 1.46 4.202 3.77c.34-.025.674-.043.996-.043 2.262 0 3.862.676 4.506 1.906.633 1.209.242 2.752-1.095 4.367zm-3.41-4.978c-.177 0-.36.011-.543.02.194.657.345 1.323.452 1.997a16.67 16.67 0 012.558 1.965c.856-1.108 1.144-2.113.781-2.805-.391-.748-1.575-1.177-3.249-1.177zm-3.478 8.263a21.38 21.38 0 002.08-1.078 17.72 17.72 0 000-4.414A21.237 21.237 0 0010 6.027a21.405 21.405 0 00-3.801 1.766 17.717 17.717 0 000 4.413 21.345 21.345 0 003.8 1.766c.576-.202 1.152-.43 1.721-.687zm1.78.595c-.384.2-.775.39-1.17.57-.095.043-.19.08-.285.12.397.094.797.172 1.2.236.093-.295.178-.605.255-.926zm-5.547.691c-.095-.041-.19-.078-.285-.121-.401-.18-.79-.373-1.17-.57.074.312.159.621.255.927.392-.062.792-.14 1.2-.236zm-3.252-3.346l.001.001A19.96 19.96 0 014.662 10c0-.416.015-.824.04-1.226-.518.374-1.009.784-1.47 1.226.461.442.952.85 1.47 1.225zm1.8-5.105a23.8 23.8 0 011.17-.571c.094-.042.19-.08.284-.12a17.681 17.681 0 00-1.2-.236c-.094.296-.178.606-.255.927zm5.546-.69c.094.04.19.077.284.12.395.18.785.37 1.17.57a13.205 13.205 0 00-.255-.926 16.62 16.62 0 00-1.2.235zm3.25 3.344h-.001c.025.402.04.81.04 1.226 0 .416-.015.824-.04 1.226A13.87 13.87 0 0016.766 10a14.02 14.02 0 00-1.469-1.226zM10 1.294c-.976 0-2.007.988-2.77 2.659.939.165 1.865.398 2.77.698.906-.3 1.832-.533 2.771-.698C12.007 2.28 10.975 1.295 10 1.295zM1.553 6.199c-.362.692-.075 1.697.782 2.805a16.73 16.73 0 012.558-1.965c.106-.675.257-1.342.452-1.997-.183-.008-.368-.02-.543-.02-1.673 0-2.858.429-3.249 1.177zm3.248 8.78c.176 0 .36-.01.544-.02a15.624 15.624 0 01-.452-1.997 16.73 16.73 0 01-2.558-1.965c-.858 1.108-1.144 2.113-.782 2.805.391.748 1.576 1.177 3.248 1.177zM10 18.705c.975 0 2.007-.988 2.77-2.658a19.88 19.88 0 01-2.77-.698 19.81 19.81 0 01-2.771.698c.763 1.671 1.795 2.658 2.771 2.658zm8.447-4.904c.362-.692.074-1.697-.78-2.805a16.745 16.745 0 01-2.56 1.965 15.637 15.637 0 01-.452 1.997c.183.009.368.02.543.02 1.673 0 2.857-.429 3.249-1.177zM12.12 10a2.121 2.121 0 11-4.242 0 2.121 2.121 0 014.242 0z"/></svg>